<svg id="Group_151" data-name="Group 151" xmlns="http://www.w3.org/2000/svg" width="30.034" height="22" viewBox="0 0 30.034 22">
  <path id="Path_125" data-name="Path 125" d="M43.4,52.773l-2.577-.223a.68.68,0,0,1-.541-.382l-.986-2.386a.645.645,0,0,0-1.177,0l-.986,2.386a.585.585,0,0,1-.541.382l-2.546.223a.624.624,0,0,0-.35,1.114l1.973,1.686a.593.593,0,0,1,.191.636l-.6,2.514a.648.648,0,0,0,.955.7l2.2-1.336a.632.632,0,0,1,.668,0l2.2,1.336a.642.642,0,0,0,.955-.7l-.6-2.514a.679.679,0,0,1,.191-.636l1.973-1.686A.638.638,0,0,0,43.4,52.773Z" transform="translate(-23.704 -38.664)" fill="#fff"/>
  <path id="Path_126" data-name="Path 126" d="M16.113,40.368l.541-1.432a.47.47,0,0,0-.445-.636H6.026a3.147,3.147,0,0,0-3.15,2.832l-.382,3.85a.735.735,0,0,0,.6.8A15.241,15.241,0,0,0,4.658,46l.35,6.141a.98.98,0,0,0,.986.923H8.954a1,1,0,0,0,.986-.923l.509-10.532a.979.979,0,0,1,.955-.955h4.3A.378.378,0,0,0,16.113,40.368Z" transform="translate(-2.492 -31.096)" fill="#fff"/>
  <circle id="Ellipse_27" data-name="Ellipse 27" cx="3.246" cy="3.246" r="3.246" transform="translate(1.721)" fill="#fff"/>
  <path id="Path_127" data-name="Path 127" d="M66.63,41.132A3.147,3.147,0,0,0,63.48,38.3H53.3a.483.483,0,0,0-.445.636l.541,1.432a.479.479,0,0,0,.445.318h4.3a.938.938,0,0,1,.955.955L59.6,52.173a.98.98,0,0,0,.986.923h2.959a1,1,0,0,0,.986-.923l.35-6.141c.573-.064,1.114-.127,1.559-.223a.735.735,0,0,0,.6-.8Z" transform="translate(-37.012 -31.096)" fill="#fff"/>
  <circle id="Ellipse_28" data-name="Ellipse 28" cx="3.246" cy="3.246" r="3.246" transform="translate(21.822)" fill="#fff"/>
</svg>
