<svg id="Group_145" data-name="Group 145" xmlns="http://www.w3.org/2000/svg" width="25.048" height="22" viewBox="0 0 25.048 22">
  <path id="Path_109" data-name="Path 109" d="M40.909,51a1.138,1.138,0,0,0-1.139,1.139v3.8a3.42,3.42,0,0,1-3.416,3.416H22.693a3.42,3.42,0,0,1-3.416-3.416v-3.8a1.139,1.139,0,1,0-2.277,0v3.8a5.7,5.7,0,0,0,5.693,5.693H36.355a5.7,5.7,0,0,0,5.693-5.693v-3.8A1.138,1.138,0,0,0,40.909,51Z" transform="translate(-17 -39.626)" fill="#fff"/>
  <path id="Path_110" data-name="Path 110" d="M40.97,21.031H37.934a.759.759,0,0,0-.759.759v6.856H33.759a.759.759,0,0,0-.568,1.262l5.693,6.427a.784.784,0,0,0,1.136,0l5.693-6.427a.759.759,0,0,0-.568-1.262H41.729V21.79A.759.759,0,0,0,40.97,21.031Z" transform="translate(-26.928 -21.031)" fill="#fff"/>
</svg>
