<svg xmlns="http://www.w3.org/2000/svg" width="33.389" height="22.5" viewBox="0 0 33.389 22.5">
  <g id="Group_146" data-name="Group 146" transform="translate(0.25 0.25)">
    <path id="Path_111" data-name="Path 111" d="M18.956,276.381a11,11,0,1,0,11,11A11.012,11.012,0,0,0,18.956,276.381Zm0,1.469a9.531,9.531,0,1,1-9.53,9.533A9.521,9.521,0,0,1,18.956,277.85Z" transform="translate(2.935 -276.381)" fill="#fff" stroke="#fff" stroke-width="0.5" fill-rule="evenodd"/>
    <path id="Path_112" data-name="Path 112" d="M2.322,283.771a.734.734,0,1,0,0,1.469H8.928a.734.734,0,1,0,0-1.469Z" transform="translate(-1.294 -273.518)" fill="#fff" stroke="#fff" stroke-width="0.5"/>
    <path id="Path_113" data-name="Path 113" d="M3.381,280.6a.734.734,0,0,0,0,1.469H9.253a.734.734,0,0,0,0-1.469Z" transform="translate(-0.884 -274.748)" fill="#fff" stroke="#fff" stroke-width="0.5"/>
    <path id="Path_114" data-name="Path 114" d="M4.967,286.945a.734.734,0,0,0,0,1.469H8.638a.734.734,0,0,0,0-1.469Z" transform="translate(-0.27 -272.289)" fill="#fff" stroke="#fff" stroke-width="0.5"/>
    <path id="Path_115" data-name="Path 115" d="M7.084,277.42a.734.734,0,0,0,0,1.469h3.672a.734.734,0,0,0,0-1.469Z" transform="translate(0.551 -275.978)" fill="#fff" stroke="#fff" stroke-width="0.5"/>
    <path id="Path_116" data-name="Path 116" d="M5.5,290.121a.734.734,0,0,0,0,1.469h5.875a.734.734,0,0,0,0-1.469Z" transform="translate(-0.065 -271.059)" fill="#fff" stroke="#fff" stroke-width="0.5"/>
    <path id="Path_117" data-name="Path 117" d="M4.114,287.68a.734.734,0,1,1-.734-.734.734.734,0,0,1,.734.734Z" transform="translate(-2.646 -272.288)" fill="#fff" stroke="#fff" stroke-width="0.5" fill-rule="evenodd"/>
    <path id="Path_118" data-name="Path 118" d="M6.231,278.155a.734.734,0,1,1-.734-.734A.734.734,0,0,1,6.231,278.155Z" transform="translate(-1.826 -275.978)" fill="#fff" stroke="#fff" stroke-width="0.5" fill-rule="evenodd"/>
    <path id="Path_119" data-name="Path 119" d="M16.069,279a.734.734,0,0,0-.723.745v6.609a.734.734,0,0,0,.214.518l4.406,4.406A.734.734,0,1,0,21,290.24l-4.189-4.192v-6.3a.734.734,0,0,0-.745-.745Z" transform="translate(5.797 -275.366)" fill="#fff" stroke="#fff" stroke-width="0.5"/>
  </g>
</svg>
