<svg xmlns="http://www.w3.org/2000/svg" width="16" height="16" viewBox="0 0 16 16">
  <g id="noun_desktop_2412367" transform="translate(-2 -1.999)">
    <g id="Group_1886" data-name="Group 1886" transform="translate(2 1.999)">
      <path id="Path_93568" data-name="Path 93568" d="M3.707,2.191Q6.734,1.99,10,2t6.25.231a1.6,1.6,0,0,1,1.472,1.422A48.866,48.866,0,0,1,18,8.8a44.558,44.558,0,0,1-.272,5.155,1.6,1.6,0,0,1-1.467,1.415Q13.145,15.61,10,15.6T3.682,15.33a1.6,1.6,0,0,1-1.463-1.45Q2,11.473,2,8.8t.22-5.154A1.6,1.6,0,0,1,3.707,2.191ZM3.658,3.939A35.211,35.211,0,0,0,3.2,9.266a19.976,19.976,0,0,0,.463,4.422A.4.4,0,0,0,4,14a42.109,42.109,0,0,0,6,.4,43.247,43.247,0,0,0,6.056-.4.4.4,0,0,0,.326-.278A16.68,16.68,0,0,0,16.8,9.266a30.627,30.627,0,0,0-.407-5.337.4.4,0,0,0-.341-.326A46.088,46.088,0,0,0,10,3.2a44.889,44.889,0,0,0-6,.4A.4.4,0,0,0,3.658,3.939ZM5.2,18a.8.8,0,0,1,0-1.6h9.6a.8.8,0,1,1,0,1.6Z" transform="translate(-2 -1.999)" fill="#fff"/>
    </g>
  </g>
</svg>
