<svg xmlns="http://www.w3.org/2000/svg" width="42.317" height="37.797" viewBox="0 0 42.317 37.797">
    <defs>
        <style>
            <!-- .cls-1{fill:#fff} -->
        </style>
    </defs>
    <g id="noun_VR_Glasses_2320713" transform="translate(-7.835 -12.249)">
        <path id="Path_91276" d="M28.993 58.871c-.864 0-21.158.062-21.158 5.4 0 4.193 12.376 5.126 17.654 5.333l-1.735 1.726a1.167 1.167 0 0 0-.005 1.65 1.166 1.166 0 0 0 1.651.005l3.325-3.3a1.3 1.3 0 0 0 .083-1.722c-.84-1-2.2-2.6-3.043-3.6a1.167 1.167 0 1 0-1.78 1.511l1.174 1.384c-7.444-.3-12.089-1.422-14.007-2.331a.716.716 0 0 1-.006-1.319c2.312-1.1 8.494-2.4 17.848-2.4s15.536 1.307 17.847 2.4a.716.716 0 0 1-.007 1.319c-2 .948-6.965 2.128-14.989 2.368a1.179 1.179 0 0 0-1.146 1.2 1.153 1.153 0 0 0 1.188 1.137c4.856-.158 18.265-.992 18.265-5.356-.001-5.343-20.295-5.405-21.159-5.405z" class="cls-1" transform="translate(0 -23.283)"/>
        <g id="Group_526" transform="translate(15.392 12.249)">
            <path id="Path_91277" d="M49.093 24.754a12.565 12.565 0 0 0-3.727-8.041 1.216 1.216 0 0 0-.328-1.438 13.468 13.468 0 0 0-17.013 0 1.217 1.217 0 0 0-.328 1.438 12.57 12.57 0 0 0-3.727 8.041 2.191 2.191 0 0 0-1.04 1.79v2.729a2.615 2.615 0 0 0 2.54 2.333 4.279 4.279 0 0 0 4.085 3.029h2.16c1.467 0 2.147-1.079 2.746-2.031.641-1.017 1.083-1.64 2.07-1.64s1.429.623 2.07 1.64c.6.952 1.28 2.031 2.746 2.031h2.16a4.278 4.278 0 0 0 4.085-3.029 2.616 2.616 0 0 0 2.541-2.333v-2.73a2.191 2.191 0 0 0-1.04-1.789zm-2.535 5.61a3.055 3.055 0 0 1-3.051 3.051h-2.158v.61-.61c-.755 0-1.142-.555-1.714-1.462-.62-.985-1.392-2.21-3.1-2.21s-2.483 1.225-3.1 2.21c-.571.907-.959 1.462-1.716 1.462h-2.165a3.055 3.055 0 0 1-3.054-3.051v-4.5a3.054 3.054 0 0 1 3.051-3.051h13.956a3.055 3.055 0 0 1 3.051 3.051v4.5zm-3.051-8.775H29.555a4.275 4.275 0 0 0-3.788 2.3 10.9 10.9 0 0 1 3.125-5.989 1.565 1.565 0 0 0 1.532-.224 10.094 10.094 0 0 1 12.215 0 1.564 1.564 0 0 0 1.532.224 10.9 10.9 0 0 1 3.124 5.99 4.275 4.275 0 0 0-3.787-2.301z" class="cls-1" transform="translate(-22.93 -12.249)"/>
            <path id="Path_91278" d="M34.034 35.173a2.138 2.138 0 0 0-2.134 2.135v4.5a2.133 2.133 0 0 0 .907 1.743l5.4-8.383h-4.17z" class="cls-1" transform="translate(-27.409 -23.697)"/>
            <path id="Path_91279" d="M44.955 35.173L39.3 43.948h.586c.218 0 .384-.15.942-1.034.662-1.05 1.661-2.638 3.877-2.638a3.739 3.739 0 0 1 1.885.479l3.594-5.581z" class="cls-1" transform="translate(-31.107 -23.697)"/>
            <path id="Path_91280" d="M62.06 36.031l-4.542 7.053.164.258c.557.885.722 1.034.939 1.034h2.16a2.138 2.138 0 0 0 2.136-2.136v-4.5a2.131 2.131 0 0 0-.857-1.709z" class="cls-1" transform="translate(-40.203 -24.126)"/>
        </g>
    </g>
</svg>
