<svg version="1.2" baseProfile="tiny-ps" xmlns="http://www.w3.org/2000/svg" viewBox="0 0 23 23" width="23" height="23">
	<title>My room - invited user</title>
	<style>
		tspan { white-space:pre }
		.shp0 { fill: #ffffff;stroke: #ffffff;stroke-width: 0.4 } 
	</style>
	<g id="My room - invited user">
		<g id="noun_Search_875355" style="opacity: 0.6">
			<path id="Path 107" fill-rule="evenodd" class="shp0" d="M21.66 21C21.49 21.19 21.24 21.29 20.97 21.29C20.72 21.29 20.47 21.19 20.27 21L16.57 17.38C14.98 18.62 12.99 19.3 10.96 19.3C8.55 19.3 6.29 18.37 4.6 16.72C2.91 15.05 1.96 12.86 1.96 10.5C1.96 8.15 2.91 5.94 4.6 4.28C6.31 2.63 8.55 1.71 10.96 1.71C13.37 1.71 15.63 2.63 17.32 4.28C20.55 7.42 20.82 12.52 17.99 15.97L21.69 19.59C22.06 19.98 22.06 20.59 21.66 21ZM15.92 5.64C14.61 4.36 12.84 3.65 10.98 3.65C9.12 3.65 7.35 4.36 6.04 5.64C4.72 6.93 4 8.66 4 10.48C4 12.3 4.72 14.03 6.04 15.31C7.35 16.6 9.12 17.31 10.98 17.31C12.84 17.31 14.61 16.6 15.92 15.31C17.24 14.03 17.96 12.3 17.96 10.48C17.96 8.66 17.24 6.93 15.92 5.64Z" />
		</g>
	</g>
</svg>