<svg xmlns="http://www.w3.org/2000/svg" width="27.139" height="28" viewBox="0 0 27.139 28">
    <g>
        <path d="M34.213 16.226l-1.165-.959a1.641 1.641 0 0 1 0-2.533l1.165-.959a2.181 2.181 0 0 0 .5-2.783l-2.3-3.984a2.181 2.181 0 0 0-2.662-.955l-1.413.529a1.641 1.641 0 0 1-2.194-1.267L25.9 1.828A2.181 2.181 0 0 0 23.743 0h-4.6a2.181 2.181 0 0 0-2.158 1.828l-.248 1.488a1.641 1.641 0 0 1-2.194 1.267l-1.413-.53a2.181 2.181 0 0 0-2.662.955l-2.3 3.984a2.181 2.181 0 0 0 .5 2.783l1.165.959a1.641 1.641 0 0 1 0 2.533l-1.165.959a2.181 2.181 0 0 0-.5 2.783l2.3 3.984a2.181 2.181 0 0 0 2.662.955l1.413-.529a1.641 1.641 0 0 1 2.194 1.267l.248 1.488A2.181 2.181 0 0 0 19.142 28h4.6a2.181 2.181 0 0 0 2.158-1.828l.248-1.488a1.641 1.641 0 0 1 2.194-1.267l1.413.529a2.181 2.181 0 0 0 2.662-.955l2.3-3.984a2.181 2.181 0 0 0-.504-2.781zM30.522 21.9l-1.413-.529a3.828 3.828 0 0 0-5.119 2.955l-.248 1.488h-4.6l-.248-1.488a3.828 3.828 0 0 0-5.119-2.955l-1.413.529-2.3-3.984 1.165-.959a3.828 3.828 0 0 0 0-5.911l-1.165-.959 2.3-3.984 1.413.529a3.828 3.828 0 0 0 5.119-2.955l.248-1.488h4.6l.248 1.488a3.828 3.828 0 0 0 5.12 2.954l1.412-.531 2.3 3.983-1.165.959a3.828 3.828 0 0 0 0 5.911l1.165.959zm-9.08-13.3a5.4 5.4 0 1 0 5.4 5.4 5.4 5.4 0 0 0-5.4-5.4zm0 8.6a3.208 3.208 0 1 1 3.209-3.2 3.212 3.212 0 0 1-3.209 3.208z" transform="translate(0) translate(-7.873 0)"/>
    </g>
</svg>
