<svg xmlns="http://www.w3.org/2000/svg" width="36.806" height="36.806" viewBox="0 0 36.806 36.806">
    <defs>
        <style>
            <!-- .cls-1{fill:#fff;stroke:#fff;stroke-width:.5px} -->
        </style>
    </defs>
    <g id="noun_Social_3681342" transform="translate(-2.15 -2.25)">
        <g id="Group_603" transform="translate(2.4 2.5)">
            <g id="Group_593" transform="translate(11.033 10.957)">
                <path id="Path_91296" d="M38.439 31.2a7.158 7.158 0 1 0 7.177 7.177 7.153 7.153 0 0 0-7.177-7.177zm0 12.942a5.784 5.784 0 1 1 5.8-5.765 5.8 5.8 0 0 1-5.8 5.765z" class="cls-1" transform="translate(-31.3 -31.2)"/>
            </g>
            <g id="Group_594" transform="translate(26.762 15.042)">
                <path id="Path_91297" d="M78.952 41.9a3.142 3.142 0 0 0-3.016 2.405h-2.749a.687.687 0 1 0 0 1.374h2.749a3.093 3.093 0 1 0 3.016-3.779zm0 4.81a1.718 1.718 0 1 1 1.718-1.718 1.711 1.711 0 0 1-1.718 1.718z" class="cls-1" transform="translate(-72.5 -41.9)"/>
            </g>
            <g id="Group_595" transform="translate(24.08 4.39)">
                <path id="Path_91298" d="M66.134 21.826a.8.8 0 0 0 .5-.191l1.947-1.947a2.974 2.974 0 0 0 1.642.5 3.092 3.092 0 1 0-3.092-3.092 3.073 3.073 0 0 0 .5 1.642l-1.947 1.947a.668.668 0 0 0 0 .954.7.7 0 0 0 .45.187zm4.085-6.452a1.718 1.718 0 1 1-1.719 1.718 1.711 1.711 0 0 1 1.718-1.718z" class="cls-1" transform="translate(-65.475 -14)"/>
            </g>
            <g id="Group_596" transform="translate(15.08)">
                <path id="Path_91299" d="M44.305 8.57v2.749a.687.687 0 1 0 1.374 0V8.57a3.066 3.066 0 0 0 2.405-2.978 3.092 3.092 0 1 0-6.185 0 3.066 3.066 0 0 0 2.406 2.978zm.687-4.7a1.718 1.718 0 1 1-1.718 1.718 1.711 1.711 0 0 1 1.718-1.714z" class="cls-1" transform="translate(-41.9 -2.5)"/>
            </g>
            <g id="Group_597" transform="translate(4.466 4.39)">
                <path id="Path_91300" d="M17.153 20.185a3.073 3.073 0 0 0 1.642-.5l1.947 1.947a.726.726 0 0 0 .5.191.8.8 0 0 0 .5-.191.668.668 0 0 0 0-.954l-1.947-1.947a2.974 2.974 0 0 0 .5-1.642 3.092 3.092 0 0 0-6.185 0 3.024 3.024 0 0 0 3.043 3.096zm0-4.81a1.718 1.718 0 1 1-1.718 1.718 1.735 1.735 0 0 1 1.718-1.719z" class="cls-1" transform="translate(-14.098 -14)"/>
            </g>
            <g id="Group_598" transform="translate(0 15.042)">
                <path id="Path_91301" d="M8.508 45.679h2.749a.687.687 0 1 0 0-1.374H8.508a3.092 3.092 0 1 0 0 1.374zM5.53 46.71a1.718 1.718 0 1 1 1.718-1.718A1.735 1.735 0 0 1 5.53 46.71z" class="cls-1" transform="translate(-2.4 -41.9)"/>
            </g>
            <g id="Group_599" transform="translate(4.428 24.042)">
                <path id="Path_91302" d="M20.681 65.675l-1.947 1.947a2.975 2.975 0 0 0-1.642-.5 3.092 3.092 0 1 0 3.092 3.092 3.073 3.073 0 0 0-.5-1.642l1.947-1.947a.675.675 0 1 0-.954-.954zm-3.589 6.261a1.718 1.718 0 1 1 1.718-1.718 1.711 1.711 0 0 1-1.718 1.718z" class="cls-1" transform="translate(-14 -65.475)"/>
            </g>
            <g id="Group_600" transform="translate(15.08 26.762)">
                <path id="Path_91303" d="M45.679 76.036v-2.749a.687.687 0 1 0-1.374 0v2.749a3.092 3.092 0 1 0 1.374 0zm-.687 4.7a1.718 1.718 0 1 1 1.718-1.718 1.711 1.711 0 0 1-1.718 1.714z" class="cls-1" transform="translate(-41.9 -72.6)"/>
            </g>
            <g id="Group_601" transform="translate(24.08 24.042)">
                <path id="Path_91304" d="M70.218 67.126a3.073 3.073 0 0 0-1.642.5l-1.946-1.951a.675.675 0 0 0-.954.954l1.947 1.947a2.974 2.974 0 0 0-.5 1.642 3.092 3.092 0 1 0 3.092-3.092zm0 4.81a1.718 1.718 0 1 1 1.718-1.718 1.735 1.735 0 0 1-1.718 1.718z" class="cls-1" transform="translate(-65.475 -65.475)"/>
            </g>
            <g id="Group_602" transform="translate(15.002 15.749)">
                <path id="Path_91305" d="M47.31 44.038a1.64 1.64 0 0 0-2.1.267l-.344.305-.382-.382a1.634 1.634 0 1 0-2.252 2.372l2.405 2.4a.348.348 0 0 0 .458 0l2.443-2.481a1.589 1.589 0 0 0-.228-2.481z" class="cls-1" transform="translate(-41.696 -43.753)"/>
            </g>
        </g>
    </g>
</svg>
