<?xml version="1.0" encoding="utf-8"?>
<!-- Generator: Adobe Illustrator 23.0.2, SVG Export Plug-In . SVG Version: 6.00 Build 0)  -->
<svg version="1.1" id="Layer_1" xmlns="http://www.w3.org/2000/svg" xmlns:xlink="http://www.w3.org/1999/xlink" x="0px" y="0px"
	 width="70px" height="70px" viewBox="0 0 70 70" style="enable-background:new 0 0 70 70;" xml:space="preserve">
<style type="text/css">
	.st0{fill:#FFFFFF;}
</style>
<g id="surface1">
	<path class="st0" d="M0.7,36.7l9.6,4l-2,1c-0.6,0.3-0.8,1-0.6,1.6l2.8,6c0.1,0.3,0.4,0.5,0.7,0.6c0.3,0.1,0.6,0.1,0.9,0l21.1-9.9
		l0.3-2.8l0.4-3.8c0-0.5,0.5-0.9,1-0.8c0.3,0,0.6,0.2,0.7,0.5c0.1,0.1,0.1,0.3,0.1,0.5l-2.4,25.9c0.5,0.4,1.2,0.5,1.9,0.4
		c0.9-0.2,1.8-1.3,2.4-3.1l9.8-29.1l0.3-0.8c0.1-0.5,0.7-0.8,1.1-0.6c0.5,0.1,0.8,0.7,0.6,1.1c0,0,0,0,0,0.1l-1,2.8l-1.1,3.2
		l16.5-7.7c4.8-2.2,7.2-6.7,5.6-10.3c-0.9-1.8-2.7-3.1-4.8-3.3c-2.3-0.3-4.6,0-6.7,1l-18.7,8.7l-20.1-7.8c-2.5-1-4.5-0.9-5.9,0.1
		c-1.2,1-1.8,2.4-1.8,4c0,0.4,0.2,0.7,0.5,1l13.5,9.3l-7.8,3.7l-13-3.3c-0.5-0.1-1.1,0.1-1.4,0.6l-3.2,5.8c-0.3,0.6-0.1,1.3,0.5,1.7
		C0.7,36.6,0.7,36.6,0.7,36.7z"/>
</g>
</svg>
