<?xml version="1.0" encoding="utf-8"?>
<!-- Generator: Adobe Illustrator 23.0.2, SVG Export Plug-In . SVG Version: 6.00 Build 0)  -->
<svg version="1.1" id="Capa_1" xmlns="http://www.w3.org/2000/svg" xmlns:xlink="http://www.w3.org/1999/xlink" x="0px" y="0px"
	 width="512px" height="512px" viewBox="0 0 512 512" style="enable-background:new 0 0 512 512;" xml:space="preserve">
<style type="text/css">
	.st0{fill:#FFFFFF;}
</style>
<g>
	<g>
		<path class="st0" d="M448.8,235.6c1.5-8.1,2.2-16.3,2.2-24.6c0-74.4-60.6-135-135-135c-47.5,0-91.6,25.3-115.8,65.5
			c-32.7-10.6-66.2-6-93.8,13c-27.6,19-44.1,49.1-45.4,82c-36.3,17.2-61,54-61,94.5c0,7,1.7,13.9,3,20.5l0,0
			c9.7,48.9,53,84.4,103,84.4h300c57.9,0,106-47.1,106-105C512,290.1,486.9,253.2,448.8,235.6z"/>
	</g>
</g>
</svg>
